<svg width="22" height="21" viewBox="0 0 22 21" fill="none" xmlns="http://www.w3.org/2000/svg">
<path fill-rule="evenodd" clip-rule="evenodd" d="M8.72294 0.292893C9.11346 -0.0976311 9.74662 -0.0976311 10.1371 0.292893L19.5729 9.72861C20.695 10.8507 21.2675 12.4012 21.1936 14.0188C21.12 15.6323 20.4113 17.1865 19.2437 18.3542C18.076 19.5219 16.5218 20.2305 14.9083 20.3042C13.2907 20.378 11.7402 19.8055 10.6181 18.6834L1.18237 9.24767C0.364484 8.42978 -0.0486943 7.30347 0.00457399 6.13663C0.0576539 4.97391 0.567472 3.86026 1.40184 3.02588C2.23622 2.19151 3.34987 1.6817 4.51259 1.62862C5.67943 1.57535 6.80574 1.98852 7.62363 2.80641L16.9692 12.1609C16.9691 12.1608 16.9694 12.161 16.9692 12.1609C17.4827 12.6746 17.7368 13.3769 17.7041 14.0928C17.6716 14.8047 17.3606 15.4779 16.8595 15.9789C16.3585 16.48 15.6853 16.791 14.9734 16.8235C14.2573 16.8562 13.5552 16.6023 13.0415 16.0886L6.42445 9.47158C6.03392 9.08106 6.03392 8.44789 6.42445 8.05737C6.81497 7.66684 7.44813 7.66684 7.83866 8.05737L14.4557 14.6744C14.5505 14.7692 14.6966 14.834 14.8822 14.8256C15.0719 14.8169 15.2797 14.7303 15.4453 14.5647C15.6109 14.3991 15.6975 14.1912 15.7062 14.0016C15.7146 13.816 15.6498 13.6699 15.555 13.5751L6.20941 4.22062C5.81048 3.82188 5.23996 3.59749 4.60379 3.62654C3.96332 3.65577 3.31494 3.94122 2.81606 4.4401C2.31717 4.93898 2.03173 5.58737 2.00249 6.22784C1.97344 6.86418 2.19763 7.4345 2.59658 7.83345L12.0323 17.2692C12.7355 17.9723 13.7299 18.3559 14.8171 18.3062C15.9084 18.2564 16.9972 17.7722 17.8294 16.94C18.6616 16.1078 19.1459 15.0189 19.1957 13.9276C19.2453 12.8405 18.8618 11.846 18.1586 11.1428L8.72293 1.70711C8.33241 1.31658 8.33241 0.683417 8.72294 0.292893Z" fill="white"/>
</svg>
