<svg width="110" height="110" viewBox="0 0 110 110" fill="none" xmlns="http://www.w3.org/2000/svg">
<circle cx="55" cy="55" r="51" stroke="#5BB14B" stroke-width="8"/>
<path d="M81.563 37.8274C83.6896 39.9545 83.6896 43.3904 81.563 45.5173L55.226 71.9142C54.19 72.9505 52.8268 73.4959 51.3545 73.4959C49.8822 73.4959 48.5191 72.8959 47.483 71.9142L34.342 58.7158C32.2154 56.5887 32.2154 53.1528 34.342 51.0258C36.4687 48.8989 39.9038 48.8987 42.0849 51.0258L51.3545 60.3521L73.8196 37.8279C75.9463 35.7008 79.3814 35.7008 81.5079 37.8279L81.563 37.8274Z" fill="url(#paint0_linear_0_1)"/>
<path d="M81.563 37.8274C83.6896 39.9545 83.6896 43.3904 81.563 45.5173L55.226 71.9142C54.19 72.9505 52.8268 73.4959 51.3545 73.4959C49.8822 73.4959 48.5191 72.8959 47.483 71.9142L34.342 58.7158C32.2154 56.5887 32.2154 53.1528 34.342 51.0258C36.4687 48.8989 39.9038 48.8987 42.0849 51.0258L51.3545 60.3521L73.8196 37.8279C75.9463 35.7008 79.3814 35.7008 81.5079 37.8279L81.563 37.8274Z" fill="#5BB14B"/>
<defs>
<linearGradient id="paint0_linear_0_1" x1="118" y1="-5" x2="-2" y2="-5" gradientUnits="userSpaceOnUse">
<stop stop-color="#5BB14B"/>
<stop offset="1" stop-color="#66EA4E"/>
</linearGradient>
</defs>
</svg>
