<svg width="19" height="12" viewBox="0 0 19 12" fill="none" xmlns="http://www.w3.org/2000/svg">
<path fill-rule="evenodd" clip-rule="evenodd" d="M0 2C0 0.89543 0.89543 0 2 0H10C11.1046 0 12 0.89543 12 2L12 5.5V6.51951V6.5L12 10C12 11.1046 11.1046 12 10 12H2C0.89543 12 0 11.1046 0 10V2ZM11 5.5V6.51951V6.5V10C11 10.3682 10.3682 11 10 11H2C1.63181 11 1 10.7109 1 10.3427V2C1 1.63181 1.63181 1 2 1H10C10.3682 1 11 1.63181 11 2V5.5Z" fill="#696969"/>
<path d="M7 5.1875C6.72386 5.1875 6.5 5.41136 6.5 5.6875C6.5 5.96364 6.72386 6.1875 7 6.1875V5.1875ZM18.3536 6.04105C18.5488 5.84579 18.5488 5.52921 18.3536 5.33395L15.1716 2.15197C14.9763 1.9567 14.6597 1.9567 14.4645 2.15197C14.2692 2.34723 14.2692 2.66381 14.4645 2.85907L17.2929 5.6875L14.4645 8.51593C14.2692 8.71119 14.2692 9.02777 14.4645 9.22303C14.6597 9.4183 14.9763 9.4183 15.1716 9.22303L18.3536 6.04105ZM7 6.1875L18 6.1875V5.1875L7 5.1875V6.1875Z" fill="#696969"/>
</svg>
