<svg width="200" height="34" viewBox="0 0 200 34" fill="none" xmlns="http://www.w3.org/2000/svg">
<path fill-rule="evenodd" clip-rule="evenodd" d="M140.872 26.7469C146.221 26.7469 149.843 23.6293 149.843 18.9083C149.843 14.1872 146.221 11.0696 140.872 11.0696C135.523 11.0696 131.901 14.1872 131.901 18.9083C131.901 23.6293 135.523 26.7469 140.872 26.7469ZM140.872 24.1993C143.955 24.1993 146.097 22.0264 146.097 18.9083C146.097 15.7901 143.955 13.6172 140.872 13.6172C137.789 13.6172 135.647 15.7901 135.647 18.9083C135.647 22.0264 137.789 24.1993 140.872 24.1993Z" fill="#00218A"/>
<path d="M71.9641 17.5365H78.8647V20.476H71.9641V17.5365Z" fill="#00218A"/>
<path fill-rule="evenodd" clip-rule="evenodd" d="M106.369 11.4616H97.7923V26.3549H107.157C110.805 26.3549 113.072 24.5912 113.072 21.9457C113.072 19.8293 110.838 18.7123 109.721 18.4183C110.509 18.0591 112.087 16.9094 112.087 15.1849C112.087 13.0293 109.228 11.4616 106.369 11.4616ZM101.44 13.9111H105.974C107.157 13.9111 108.538 14.401 108.538 15.5768C108.538 16.7526 107.749 17.3405 105.974 17.3405H101.44V13.9111ZM106.763 19.8881H101.44V23.8074H107.157C108.34 23.8074 109.326 22.9255 109.326 21.9457C109.326 20.9659 108.538 19.8881 106.763 19.8881Z" fill="#00218A"/>
<path fill-rule="evenodd" clip-rule="evenodd" d="M116.325 11.4616H124.606C126.972 11.4616 130.127 13.1273 130.127 15.8708C130.127 18.6143 127.761 20.6719 124.606 20.6719H119.874V26.3549H116.325V11.4616ZM124.113 13.9111H119.874V18.2224H124.113C125.789 18.2224 126.381 16.7526 126.381 15.8708C126.381 14.9889 125.592 13.9111 124.113 13.9111Z" fill="#00218A"/>
<path d="M80.8364 11.4616H94.2434V13.9111H84.3853V17.2425H93.5533V19.7901H84.3853V23.9054H94.6377V26.3549H80.8364V11.4616Z" fill="#00218A"/>
<path fill-rule="evenodd" clip-rule="evenodd" d="M60.6273 26.7469C65.976 26.7469 69.5981 23.6293 69.5981 18.9083C69.5981 14.1872 65.976 11.0696 60.6273 11.0696C55.2785 11.0696 51.6564 14.1872 51.6564 18.9083C51.6564 23.6293 55.2785 26.7469 60.6273 26.7469ZM60.6273 24.1993C63.71 24.1993 65.852 22.0264 65.852 18.9083C65.852 15.7901 63.71 13.6172 60.6273 13.6172C57.5445 13.6172 55.4025 15.7901 55.4025 18.9083C55.4025 22.0264 57.5445 24.1993 60.6273 24.1993Z" fill="#ED3333"/>
<path fill-rule="evenodd" clip-rule="evenodd" d="M0 26.3549L7.19641 11.4616H10.9425L18.2375 26.3549H14.2942L12.7169 22.9255H5.32337L3.84466 26.3549H0ZM8.97086 14.793L6.40776 20.378H11.6325L8.97086 14.793Z" fill="#ED3333"/>
<path d="M36.3764 11.4616H50.8677V13.9111H45.3472V26.3549H41.7983V13.9111H36.3764V11.4616Z" fill="#ED3333"/>
<path fill-rule="evenodd" clip-rule="evenodd" d="M20.3077 11.4616H28.8842C31.743 11.4616 34.6019 13.0293 34.6019 15.1849C34.6019 16.9094 33.0246 18.0591 32.236 18.4183C33.3532 18.7123 35.5877 19.8293 35.5877 21.9457C35.5877 24.5912 33.3203 26.3549 29.6728 26.3549H20.3077V11.4616ZM28.4899 13.9111H23.9552V17.3405H28.4899C30.2643 17.3405 31.053 16.7526 31.053 15.5768C31.053 14.401 29.6728 13.9111 28.4899 13.9111ZM29.2785 19.8881H23.9552V23.8074H29.6728C30.8558 23.8074 31.8416 22.9255 31.8416 21.9457C31.8416 20.9659 31.053 19.8881 29.2785 19.8881Z" fill="#ED3333"/>
<path d="M162.046 26.9452C162.046 17.3037 157.183 11.4313 154.751 9.70029C174.369 9.21038 184.72 7.3487 200 0C197.831 1.30644 191.896 5.23228 184.72 9.70029C175.749 15.2853 169.144 19.8905 162.046 26.9452Z" fill="#ED3333"/>
<path d="M163.919 28.121C163.919 19.4986 159.91 16.6244 157.906 16.2651H170.327C184.838 16.2651 196.155 12.7378 200 10.9741C196.352 12.8357 186.908 17.9308 178.312 23.4179C169.716 28.9049 164.872 32.7589 163.525 34C163.656 32.9222 163.919 30.2375 163.919 28.121Z" fill="#00218A"/>
</svg>
