<svg width="26" height="26" viewBox="0 0 26 26" fill="none" xmlns="http://www.w3.org/2000/svg">
<path d="M2.88886 11.5555H8.66659C10.2555 11.5555 11.5555 10.2555 11.5555 8.66659V2.88886C11.5555 1.29999 10.2555 0 8.66659 0H2.88886C1.29999 0 0 1.29999 0 2.88886V8.66659C0 10.2555 1.29999 11.5555 2.88886 11.5555ZM2.88886 2.88886H8.66659V8.66659H2.88886V2.88886Z" fill="white"/>
<path d="M2.88886 25.9999H8.66659C10.2555 25.9999 11.5555 24.7 11.5555 23.1111V17.3334C11.5555 15.7445 10.2555 14.4445 8.66659 14.4445H2.88886C1.29999 14.4445 0 15.7445 0 17.3334V23.1111C0 24.7 1.29999 25.9999 2.88886 25.9999ZM2.88886 17.3334H8.66659V23.1111H2.88886V17.3334Z" fill="white"/>
<path d="M14.4444 2.88886V8.66659C14.4444 10.2555 15.7444 11.5555 17.3333 11.5555H23.111C24.6999 11.5555 25.9998 10.2555 25.9998 8.66659V2.88886C25.9998 1.29999 24.6999 0 23.111 0H17.3333C15.7444 0 14.4444 1.29999 14.4444 2.88886ZM23.111 8.66659H17.3333V2.88886H23.111V8.66659Z" fill="white"/>
<path d="M26.0001 25.2775V23.8331C26.0001 23.4286 25.6823 23.1108 25.2779 23.1108H23.8334C23.429 23.1108 23.1112 23.4286 23.1112 23.8331V25.2775C23.1112 25.6819 23.429 25.9997 23.8334 25.9997H25.2779C25.6823 25.9997 26.0001 25.6819 26.0001 25.2775Z" fill="white"/>
<path d="M14.4444 15.1667V16.6111C14.4444 17.0156 14.7622 17.3334 15.1666 17.3334H16.611C17.0155 17.3334 17.3333 17.0156 17.3333 16.6111V15.1667C17.3333 14.7623 17.0155 14.4445 16.611 14.4445H15.1666C14.7622 14.4445 14.4444 14.7623 14.4444 15.1667Z" fill="white"/>
<path d="M19.4999 17.3333H18.0555C17.651 17.3333 17.3333 17.651 17.3333 18.0555V19.4999C17.3333 19.9043 17.651 20.2221 18.0555 20.2221H19.4999C19.9044 20.2221 20.2221 19.9043 20.2221 19.4999V18.0555C20.2221 17.651 19.9044 17.3333 19.4999 17.3333Z" fill="white"/>
<path d="M14.4444 20.9447V22.3891C14.4444 22.7935 14.7622 23.1113 15.1666 23.1113H16.611C17.0155 23.1113 17.3333 22.7935 17.3333 22.3891V20.9447C17.3333 20.5402 17.0155 20.2224 16.611 20.2224H15.1666C14.7622 20.2224 14.4444 20.5402 14.4444 20.9447Z" fill="white"/>
<path d="M18.0555 25.9997H19.4999C19.9044 25.9997 20.2221 25.6819 20.2221 25.2775V23.8331C20.2221 23.4286 19.9044 23.1108 19.4999 23.1108H18.0555C17.651 23.1108 17.3333 23.4286 17.3333 23.8331V25.2775C17.3333 25.6819 17.651 25.9997 18.0555 25.9997Z" fill="white"/>
<path d="M20.9443 23.1113H22.3887C22.7931 23.1113 23.1109 22.7935 23.1109 22.3891V20.9447C23.1109 20.5402 22.7931 20.2224 22.3887 20.2224H20.9443C20.5398 20.2224 20.222 20.5402 20.222 20.9447V22.3891C20.222 22.7935 20.5398 23.1113 20.9443 23.1113Z" fill="white"/>
<path d="M22.3887 14.4445H20.9443C20.5398 14.4445 20.222 14.7623 20.222 15.1667V16.6111C20.222 17.0156 20.5398 17.3334 20.9443 17.3334H22.3887C22.7931 17.3334 23.1109 17.0156 23.1109 16.6111V15.1667C23.1109 14.7623 22.7931 14.4445 22.3887 14.4445Z" fill="white"/>
<path d="M23.8334 20.2221H25.2779C25.6823 20.2221 26.0001 19.9043 26.0001 19.4999V18.0555C26.0001 17.651 25.6823 17.3333 25.2779 17.3333H23.8334C23.429 17.3333 23.1112 17.651 23.1112 18.0555V19.4999C23.1112 19.9043 23.429 20.2221 23.8334 20.2221Z" fill="white"/>
</svg>
